<?xml version="1.0" encoding="UTF-8"?>
<svg xmlns="http://www.w3.org/2000/svg" width="800.000" height="600.000" viewBox="0.0 0.0 800.000 600.000" version="1.1">
  <desc>Produce by Acme CAD Converter</desc>
<path d="M548.72 348.02L548.52 356.19"
fill="none" stroke="black" stroke-width="0.5"/>
<path d="M548.52 356.19L547.92 364.35"
fill="none" stroke="black" stroke-width="0.5"/>
<path d="M547.92 364.35L546.93 372.47"
fill="none" stroke="black" stroke-width="0.5"/>
<path d="M546.93 372.47L545.54 380.53"
fill="none" stroke="black" stroke-width="0.5"/>
<path d="M545.54 380.53L543.76 388.52"
fill="none" stroke="black" stroke-width="0.5"/>
<path d="M543.76 388.52L541.6 396.4"
fill="none" stroke="black" stroke-width="0.5"/>
<path d="M541.6 396.4L539.05 404.18"
fill="none" stroke="black" stroke-width="0.5"/>
<path d="M539.05 404.18L536.13 411.82"
fill="none" stroke="black" stroke-width="0.5"/>
<path d="M536.13 411.82L532.84 419.31"
fill="none" stroke="black" stroke-width="0.5"/>
<path d="M532.84 419.31L529.19 426.63"
fill="none" stroke="black" stroke-width="0.5"/>
<path d="M529.19 426.63L525.19 433.76"
fill="none" stroke="black" stroke-width="0.5"/>
<path d="M525.19 433.76L520.84 440.69"
fill="none" stroke="black" stroke-width="0.5"/>
<path d="M520.84 440.69L516.16 447.4"
fill="none" stroke="black" stroke-width="0.5"/>
<path d="M516.16 447.4L511.16 453.87"
fill="none" stroke="black" stroke-width="0.5"/>
<path d="M511.16 453.87L505.85 460.1"
fill="none" stroke="black" stroke-width="0.5"/>
<path d="M505.85 460.1L500.25 466.05"
fill="none" stroke="black" stroke-width="0.5"/>
<path d="M500.25 466.05L494.36 471.73"
fill="none" stroke="black" stroke-width="0.5"/>
<path d="M494.36 471.73L488.2 477.12"
fill="none" stroke="black" stroke-width="0.5"/>
<path d="M488.2 477.12L481.79 482.19"
fill="none" stroke="black" stroke-width="0.5"/>
<path d="M481.79 482.19L475.14 486.95"
fill="none" stroke="black" stroke-width="0.5"/>
<path d="M475.14 486.95L468.26 491.38"
fill="none" stroke="black" stroke-width="0.5"/>
<path d="M468.26 491.38L461.18 495.47"
fill="none" stroke="black" stroke-width="0.5"/>
<path d="M461.18 495.47L453.9 499.21"
fill="none" stroke="black" stroke-width="0.5"/>
<path d="M453.9 499.21L446.45 502.6"
fill="none" stroke="black" stroke-width="0.5"/>
<path d="M446.45 502.6L438.85 505.61"
fill="none" stroke="black" stroke-width="0.5"/>
<path d="M438.85 505.61L431.11 508.25"
fill="none" stroke="black" stroke-width="0.5"/>
<path d="M431.11 508.25L423.25 510.51"
fill="none" stroke="black" stroke-width="0.5"/>
<path d="M423.25 510.51L415.28 512.39"
fill="none" stroke="black" stroke-width="0.5"/>
<path d="M415.28 512.39L407.24 513.87"
fill="none" stroke="black" stroke-width="0.5"/>
<path d="M407.24 513.87L399.13 514.97"
fill="none" stroke="black" stroke-width="0.5"/>
<path d="M399.13 514.97L390.98 515.66"
fill="none" stroke="black" stroke-width="0.5"/>
<path d="M390.98 515.66L382.81 515.96"
fill="none" stroke="black" stroke-width="0.5"/>
<path d="M382.81 515.96L374.63 515.86"
fill="none" stroke="black" stroke-width="0.5"/>
<path d="M374.63 515.86L366.46 515.36"
fill="none" stroke="black" stroke-width="0.5"/>
<path d="M366.46 515.36L358.33 514.47"
fill="none" stroke="black" stroke-width="0.5"/>
<path d="M358.33 514.47L350.26 513.18"
fill="none" stroke="black" stroke-width="0.5"/>
<path d="M350.26 513.18L342.25 511.5"
fill="none" stroke="black" stroke-width="0.5"/>
<path d="M342.25 511.5L334.34 509.43"
fill="none" stroke="black" stroke-width="0.5"/>
<path d="M334.34 509.43L326.53 506.98"
fill="none" stroke="black" stroke-width="0.5"/>
<path d="M326.53 506.98L318.86 504.15"
fill="none" stroke="black" stroke-width="0.5"/>
<path d="M318.86 504.15L311.33 500.95"
fill="none" stroke="black" stroke-width="0.5"/>
<path d="M311.33 500.95L303.97 497.39"
fill="none" stroke="black" stroke-width="0.5"/>
<path d="M303.97 497.39L296.79 493.47"
fill="none" stroke="black" stroke-width="0.5"/>
<path d="M296.79 493.47L289.8 489.21"
fill="none" stroke="black" stroke-width="0.5"/>
<path d="M289.8 489.21L283.04 484.61"
fill="none" stroke="black" stroke-width="0.5"/>
<path d="M283.04 484.61L276.5 479.69"
fill="none" stroke="black" stroke-width="0.5"/>
<path d="M276.5 479.69L270.21 474.46"
fill="none" stroke="black" stroke-width="0.5"/>
<path d="M270.21 474.46L264.19 468.93"
fill="none" stroke="black" stroke-width="0.5"/>
<path d="M264.19 468.93L258.44 463.11"
fill="none" stroke="black" stroke-width="0.5"/>
<path d="M258.44 463.11L252.98 457.02"
fill="none" stroke="black" stroke-width="0.5"/>
<path d="M252.98 457.02L247.83 450.67"
fill="none" stroke="black" stroke-width="0.5"/>
<path d="M247.83 450.67L242.99 444.07"
fill="none" stroke="black" stroke-width="0.5"/>
<path d="M242.99 444.07L238.47 437.25"
fill="none" stroke="black" stroke-width="0.5"/>
<path d="M238.47 437.25L234.3 430.22"
fill="none" stroke="black" stroke-width="0.5"/>
<path d="M234.3 430.22L230.47 422.99"
fill="none" stroke="black" stroke-width="0.5"/>
<path d="M230.47 422.99L227 415.58"
fill="none" stroke="black" stroke-width="0.5"/>
<path d="M227 415.58L223.89 408.02"
fill="none" stroke="black" stroke-width="0.5"/>
<path d="M223.89 408.02L221.15 400.31"
fill="none" stroke="black" stroke-width="0.5"/>
<path d="M221.15 400.31L218.8 392.47"
fill="none" stroke="black" stroke-width="0.5"/>
<path d="M218.8 392.47L216.82 384.54"
fill="none" stroke="black" stroke-width="0.5"/>
<path d="M216.82 384.54L215.24 376.51"
fill="none" stroke="black" stroke-width="0.5"/>
<path d="M215.24 376.51L214.05 368.42"
fill="none" stroke="black" stroke-width="0.5"/>
<path d="M214.05 368.42L213.25 360.28"
fill="none" stroke="black" stroke-width="0.5"/>
<path d="M213.25 360.28L212.86 352.11"
fill="none" stroke="black" stroke-width="0.5"/>
<path d="M212.86 352.11L212.86 343.93Z"
fill="none" stroke="black" stroke-width="0.5"/>
<path d="M212.86 343.93L213.25 335.76"
fill="none" stroke="black" stroke-width="0.5"/>
<path d="M213.25 335.76L214.05 327.61"
fill="none" stroke="black" stroke-width="0.5"/>
<path d="M214.05 327.61L215.24 319.52"
fill="none" stroke="black" stroke-width="0.5"/>
<path d="M215.24 319.52L216.82 311.5"
fill="none" stroke="black" stroke-width="0.5"/>
<path d="M216.82 311.5L218.8 303.56"
fill="none" stroke="black" stroke-width="0.5"/>
<path d="M218.8 303.56L221.15 295.73"
fill="none" stroke="black" stroke-width="0.5"/>
<path d="M221.15 295.73L223.89 288.02"
fill="none" stroke="black" stroke-width="0.5"/>
<path d="M223.89 288.02L227 280.45"
fill="none" stroke="black" stroke-width="0.5"/>
<path d="M227 280.45L230.47 273.04"
fill="none" stroke="black" stroke-width="0.5"/>
<path d="M230.47 273.04L234.3 265.81"
fill="none" stroke="black" stroke-width="0.5"/>
<path d="M234.3 265.81L238.47 258.78"
fill="none" stroke="black" stroke-width="0.5"/>
<path d="M238.47 258.78L242.99 251.96"
fill="none" stroke="black" stroke-width="0.5"/>
<path d="M242.99 251.96L247.83 245.37"
fill="none" stroke="black" stroke-width="0.5"/>
<path d="M247.83 245.37L252.98 239.01"
fill="none" stroke="black" stroke-width="0.5"/>
<path d="M252.98 239.01L258.44 232.92"
fill="none" stroke="black" stroke-width="0.5"/>
<path d="M258.44 232.92L264.19 227.1"
fill="none" stroke="black" stroke-width="0.5"/>
<path d="M264.19 227.1L270.21 221.57"
fill="none" stroke="black" stroke-width="0.5"/>
<path d="M270.21 221.57L276.5 216.34"
fill="none" stroke="black" stroke-width="0.5"/>
<path d="M276.5 216.34L283.04 211.42"
fill="none" stroke="black" stroke-width="0.5"/>
<path d="M283.04 211.42L289.8 206.82"
fill="none" stroke="black" stroke-width="0.5"/>
<path d="M289.8 206.82L296.79 202.56"
fill="none" stroke="black" stroke-width="0.5"/>
<path d="M296.79 202.56L303.97 198.64"
fill="none" stroke="black" stroke-width="0.5"/>
<path d="M303.97 198.64L311.33 195.08"
fill="none" stroke="black" stroke-width="0.5"/>
<path d="M311.33 195.08L318.86 191.88"
fill="none" stroke="black" stroke-width="0.5"/>
<path d="M318.86 191.88L326.53 189.05"
fill="none" stroke="black" stroke-width="0.5"/>
<path d="M326.53 189.05L334.34 186.6"
fill="none" stroke="black" stroke-width="0.5"/>
<path d="M334.34 186.6L342.25 184.53"
fill="none" stroke="black" stroke-width="0.5"/>
<path d="M342.25 184.53L350.26 182.85"
fill="none" stroke="black" stroke-width="0.5"/>
<path d="M350.26 182.85L358.33 181.56"
fill="none" stroke="black" stroke-width="0.5"/>
<path d="M358.33 181.56L366.46 180.67"
fill="none" stroke="black" stroke-width="0.5"/>
<path d="M366.46 180.67L374.63 180.17"
fill="none" stroke="black" stroke-width="0.5"/>
<path d="M374.63 180.17L382.81 180.07"
fill="none" stroke="black" stroke-width="0.5"/>
<path d="M382.81 180.07L390.98 180.37"
fill="none" stroke="black" stroke-width="0.5"/>
<path d="M390.98 180.37L399.13 181.07"
fill="none" stroke="black" stroke-width="0.5"/>
<path d="M399.13 181.07L407.24 182.16"
fill="none" stroke="black" stroke-width="0.5"/>
<path d="M407.24 182.16L415.28 183.64"
fill="none" stroke="black" stroke-width="0.5"/>
<path d="M415.28 183.64L423.25 185.52"
fill="none" stroke="black" stroke-width="0.5"/>
<path d="M423.25 185.52L431.11 187.78"
fill="none" stroke="black" stroke-width="0.5"/>
<path d="M431.11 187.78L438.85 190.42"
fill="none" stroke="black" stroke-width="0.5"/>
<path d="M438.85 190.42L446.45 193.44"
fill="none" stroke="black" stroke-width="0.5"/>
<path d="M446.45 193.44L453.9 196.82"
fill="none" stroke="black" stroke-width="0.5"/>
<path d="M453.9 196.82L461.18 200.56"
fill="none" stroke="black" stroke-width="0.5"/>
<path d="M461.18 200.56L468.26 204.65"
fill="none" stroke="black" stroke-width="0.5"/>
<path d="M468.26 204.65L475.14 209.08"
fill="none" stroke="black" stroke-width="0.5"/>
<path d="M475.14 209.08L481.79 213.84"
fill="none" stroke="black" stroke-width="0.5"/>
<path d="M481.79 213.84L488.2 218.92"
fill="none" stroke="black" stroke-width="0.5"/>
<path d="M488.2 218.92L494.36 224.3"
fill="none" stroke="black" stroke-width="0.5"/>
<path d="M494.36 224.3L500.25 229.98"
fill="none" stroke="black" stroke-width="0.5"/>
<path d="M500.25 229.98L505.85 235.94"
fill="none" stroke="black" stroke-width="0.5"/>
<path d="M505.85 235.94L511.16 242.16"
fill="none" stroke="black" stroke-width="0.5"/>
<path d="M511.16 242.16L516.16 248.63"
fill="none" stroke="black" stroke-width="0.5"/>
<path d="M516.16 248.63L520.84 255.34"
fill="none" stroke="black" stroke-width="0.5"/>
<path d="M520.84 255.34L525.19 262.27"
fill="none" stroke="black" stroke-width="0.5"/>
<path d="M525.19 262.27L529.19 269.41"
fill="none" stroke="black" stroke-width="0.5"/>
<path d="M529.19 269.41L532.84 276.73"
fill="none" stroke="black" stroke-width="0.5"/>
<path d="M532.84 276.73L536.13 284.21"
fill="none" stroke="black" stroke-width="0.5"/>
<path d="M536.13 284.21L539.05 291.85"
fill="none" stroke="black" stroke-width="0.5"/>
<path d="M539.05 291.85L541.6 299.63"
fill="none" stroke="black" stroke-width="0.5"/>
<path d="M541.6 299.63L543.76 307.52"
fill="none" stroke="black" stroke-width="0.5"/>
<path d="M543.76 307.52L545.54 315.5"
fill="none" stroke="black" stroke-width="0.5"/>
<path d="M545.54 315.5L546.93 323.56"
fill="none" stroke="black" stroke-width="0.5"/>
<path d="M546.93 323.56L547.92 331.68"
fill="none" stroke="black" stroke-width="0.5"/>
<path d="M547.92 331.68L548.52 339.84"
fill="none" stroke="black" stroke-width="0.5"/>
<path d="M548.52 339.84L548.72 348.02"
fill="none" stroke="black" stroke-width="0.5"/>
<path d="M346.48 512.44L221.7 294.08"
fill="none" stroke="black" stroke-width="0.5"/>
<path d="M216.04 315.23L383.31 515.95"
fill="none" stroke="black" stroke-width="0.5"/>
<path d="M413.55 512.74L212.83 345.47"
fill="none" stroke="black" stroke-width="0.5"/>
<path d="M216.34 382.3L434.7 507.08"
fill="none" stroke="black" stroke-width="0.5"/>
<path d="M445.72 502.91L229.98 422"
fill="none" stroke="black" stroke-width="0.5"/>
<path d="M256.32 460.82L445.72 502.91"
fill="none" stroke="black" stroke-width="0.5"/>
<path d="M429.83 508.65L300.86 495.75"
fill="none" stroke="black" stroke-width="0.5"/>
<path d="M267.96 472.46L225.87 283.06"
fill="none" stroke="black" stroke-width="0.5"/>
<path d="M225.87 283.06L306.78 498.8"
fill="none" stroke="black" stroke-width="0.5"/>
<path d="M220.13 298.95L233.03 427.92"
fill="none" stroke="black" stroke-width="0.5"/>
<path d="M352.45 266.41L271.03 380.4"
fill="none" stroke="black" stroke-width="0.5"/>
<path d="M352.45 266.41L497.2 469.06"
fill="none" stroke="black" stroke-width="0.5"/>
<path d="M352.45 266.41L477.53 485.3"
fill="none" stroke="black" stroke-width="0.5"/>
<path d="M378.62 303.05L373.39 303.05"
fill="none" stroke="black" stroke-width="0.5"/>
<path d="M404.79 339.69L394.33 339.69"
fill="none" stroke="black" stroke-width="0.5"/>
<path d="M430.97 376.33L415.26 376.33"
fill="none" stroke="black" stroke-width="0.5"/>
<path d="M457.14 412.97L436.2 412.97"
fill="none" stroke="black" stroke-width="0.5"/>
<path d="M457.14 449.61L483.31 449.61"
fill="none" stroke="black" stroke-width="0.5"/>
<path d="M 448.03 194.12 A 51.817 51.817 0 1 0 522.99 258.68"
fill="none" stroke="black" stroke-width="0.5"/>
</svg>
