<?xml version="1.0" encoding="UTF-8"?>
<svg xmlns="http://www.w3.org/2000/svg" width="800.000" height="600.000" viewBox="0.0 0.0 800.000 600.000" version="1.1">
  <title>Produce by Acme CAD Converter</title>
  <desc>Produce by Acme CAD Converter</desc>
<path d="M102.6 276.71L102.6 255.21"
fill="none" stroke="red" stroke-width="0.5"/>
<path d="M116.93 326.88L116.93 201.46"
fill="none" stroke="red" stroke-width="0.5"/>
<path d="M66.76 276.71L66.76 326.88"
fill="none" stroke="red" stroke-width="0.5"/>
<path d="M45.26 348.38L45.26 255.21"
fill="none" stroke="red" stroke-width="0.5"/>
<path d="M310.4 326.88L310.4 348.38"
fill="none" stroke="red" stroke-width="0.5"/>
<path d="M296.06 276.71L296.06 402.13"
fill="none" stroke="red" stroke-width="0.5"/>
<path d="M274.56 402.13L274.56 255.21"
fill="none" stroke="red" stroke-width="0.5"/>
<path d="M346.23 326.88L346.23 276.71"
fill="none" stroke="red" stroke-width="0.5"/>
<path d="M367.73 255.21L367.73 348.38"
fill="none" stroke="red" stroke-width="0.5"/>
<path d="M389.23 348.38L389.23 255.21"
fill="none" stroke="red" stroke-width="0.5"/>
<path d="M446.56 348.38L446.56 326.88"
fill="none" stroke="red" stroke-width="0.5"/>
<path d="M482.4 255.21L482.4 348.38"
fill="none" stroke="red" stroke-width="0.5"/>
<path d="M410.73 326.88L410.73 276.71"
fill="none" stroke="red" stroke-width="0.5"/>
<path d="M460.9 348.38L460.9 276.71"
fill="none" stroke="red" stroke-width="0.5"/>
<path d="M503.9 348.38L503.9 255.21"
fill="none" stroke="red" stroke-width="0.5"/>
<path d="M525.4 326.88L525.4 276.71"
fill="none" stroke="red" stroke-width="0.5"/>
<path d="M575.57 326.88L575.57 276.71"
fill="none" stroke="red" stroke-width="0.5"/>
<path d="M138.43 201.46L138.43 348.38"
fill="none" stroke="red" stroke-width="0.5"/>
<path d="M618.57 348.38L618.57 197.87"
fill="none" stroke="red" stroke-width="0.5"/>
<path d="M618.57 348.38L640.07 348.38"
fill="none" stroke="red" stroke-width="0.5"/>
<path d="M618.57 197.87L640.07 197.87"
fill="none" stroke="red" stroke-width="0.5"/>
<path d="M640.07 197.87L640.07 348.38"
fill="none" stroke="red" stroke-width="0.5"/>
<path d="M661.57 348.38L661.57 255.21"
fill="none" stroke="red" stroke-width="0.5"/>
<path d="M754.74 255.21L754.74 348.38"
fill="none" stroke="red" stroke-width="0.5"/>
<path d="M683.07 326.88L683.07 276.71"
fill="none" stroke="red" stroke-width="0.5"/>
<path d="M733.24 326.88L733.24 276.71"
fill="none" stroke="red" stroke-width="0.5"/>
<path d="M23.76 233.71L23.76 369.88"
fill="none" stroke="red" stroke-width="0.5"/>
<path d="M102.6 233.71L102.6 212.21"
fill="none" stroke="red" stroke-width="0.5"/>
<path d="M2.26 212.21L2.26 391.38"
fill="none" stroke="red" stroke-width="0.5"/>
<path d="M159.93 233.71L159.93 212.21"
fill="none" stroke="red" stroke-width="0.5"/>
<path d="M776.24 233.71L776.24 369.88"
fill="none" stroke="red" stroke-width="0.5"/>
<path d="M797.74 212.21L797.74 391.38"
fill="none" stroke="red" stroke-width="0.5"/>
<path d="M310.4 369.88L310.4 391.38"
fill="none" stroke="red" stroke-width="0.5"/>
<path d="M274.56 402.13L296.06 402.13"
fill="none" stroke="red" stroke-width="0.5"/>
<path d="M253.1 348.38L253.1 326.88"
fill="none" stroke="red" stroke-width="0.5"/>
<path d="M253.1 312.54L253.1 255.21"
fill="none" stroke="red" stroke-width="0.5"/>
<path d="M231.6 276.71L231.6 291.04"
fill="none" stroke="red" stroke-width="0.5"/>
<path d="M195.77 291.04L195.77 312.54"
fill="none" stroke="red" stroke-width="0.5"/>
<path d="M181.43 276.71L181.43 326.88"
fill="none" stroke="red" stroke-width="0.5"/>
<path d="M597.07 255.21L597.07 348.38"
fill="none" stroke="red" stroke-width="0.5"/>
<path d="M66.76 326.88L116.93 326.88"
fill="none" stroke="red" stroke-width="0.5"/>
<path d="M45.26 348.38L138.43 348.38"
fill="none" stroke="red" stroke-width="0.5"/>
<path d="M66.76 276.71L102.6 276.71"
fill="none" stroke="red" stroke-width="0.5"/>
<path d="M45.26 255.21L102.6 255.21"
fill="none" stroke="red" stroke-width="0.5"/>
<path d="M23.76 233.71L102.6 233.71"
fill="none" stroke="red" stroke-width="0.5"/>
<path d="M2.26 212.21L102.6 212.21"
fill="none" stroke="red" stroke-width="0.5"/>
<path d="M195.77 312.54L253.1 312.54"
fill="none" stroke="red" stroke-width="0.5"/>
<path d="M195.77 291.04L231.6 291.04"
fill="none" stroke="red" stroke-width="0.5"/>
<path d="M181.43 276.71L231.6 276.71"
fill="none" stroke="red" stroke-width="0.5"/>
<path d="M159.93 255.21L253.1 255.21"
fill="none" stroke="red" stroke-width="0.5"/>
<path d="M181.43 326.88L253.1 326.88"
fill="none" stroke="red" stroke-width="0.5"/>
<path d="M116.93 201.46L138.43 201.46"
fill="none" stroke="red" stroke-width="0.5"/>
<path d="M159.93 348.38L253.1 348.38"
fill="none" stroke="red" stroke-width="0.5"/>
<path d="M159.93 348.38L159.93 255.21"
fill="none" stroke="red" stroke-width="0.5"/>
<path d="M253.1 369.88L253.1 391.38"
fill="none" stroke="red" stroke-width="0.5"/>
<path d="M23.76 369.88L253.1 369.88"
fill="none" stroke="red" stroke-width="0.5"/>
<path d="M2.26 391.38L253.1 391.38"
fill="none" stroke="red" stroke-width="0.5"/>
<path d="M310.4 369.88L776.24 369.88"
fill="none" stroke="red" stroke-width="0.5"/>
<path d="M797.74 391.38L310.4 391.38"
fill="none" stroke="red" stroke-width="0.5"/>
<path d="M683.07 326.88L733.24 326.88"
fill="none" stroke="red" stroke-width="0.5"/>
<path d="M661.57 348.38L754.74 348.38"
fill="none" stroke="red" stroke-width="0.5"/>
<path d="M683.07 276.71L733.24 276.71"
fill="none" stroke="red" stroke-width="0.5"/>
<path d="M661.57 255.21L754.74 255.21"
fill="none" stroke="red" stroke-width="0.5"/>
<path d="M661.57 233.71L661.57 212.21"
fill="none" stroke="red" stroke-width="0.5"/>
<path d="M661.57 233.71L776.24 233.71"
fill="none" stroke="red" stroke-width="0.5"/>
<path d="M661.57 212.21L797.74 212.21"
fill="none" stroke="red" stroke-width="0.5"/>
<path d="M525.4 326.88L575.57 326.88"
fill="none" stroke="red" stroke-width="0.5"/>
<path d="M503.9 348.38L597.07 348.38"
fill="none" stroke="red" stroke-width="0.5"/>
<path d="M525.4 276.71L575.57 276.71"
fill="none" stroke="red" stroke-width="0.5"/>
<path d="M503.9 255.21L597.07 255.21"
fill="none" stroke="red" stroke-width="0.5"/>
<path d="M597.07 233.71L597.07 212.21"
fill="none" stroke="red" stroke-width="0.5"/>
<path d="M597.07 233.71L159.93 233.71"
fill="none" stroke="red" stroke-width="0.5"/>
<path d="M159.93 212.21L597.07 212.21"
fill="none" stroke="red" stroke-width="0.5"/>
<path d="M410.73 326.88L446.56 326.88"
fill="none" stroke="red" stroke-width="0.5"/>
<path d="M389.23 348.38L446.56 348.38"
fill="none" stroke="red" stroke-width="0.5"/>
<path d="M410.73 276.71L460.9 276.71"
fill="none" stroke="red" stroke-width="0.5"/>
<path d="M389.23 255.21L482.4 255.21"
fill="none" stroke="red" stroke-width="0.5"/>
<path d="M460.9 348.38L482.4 348.38"
fill="none" stroke="red" stroke-width="0.5"/>
<path d="M296.06 276.71L346.23 276.71"
fill="none" stroke="red" stroke-width="0.5"/>
<path d="M274.56 255.21L367.73 255.21"
fill="none" stroke="red" stroke-width="0.5"/>
<path d="M310.4 326.88L346.23 326.88"
fill="none" stroke="red" stroke-width="0.5"/>
<path d="M310.4 348.38L367.73 348.38"
fill="none" stroke="red" stroke-width="0.5"/>
</svg>
